<?xml version="1.0"?>
<svg width="36" height="36" xmlns="http://www.w3.org/2000/svg" xmlns:svg="http://www.w3.org/2000/svg">
 <g class="layer">
  <title>Layer 1</title>
  <path clip-rule="evenodd" d="m27.75,1.88c0.62,0 1.13,0.5 1.13,1.12l0,4.13l4.12,0c0.62,0 1.13,0.5 1.13,1.12c0,0.62 -0.51,1.13 -1.13,1.13l-4.12,0l0,4.12c0,0.62 -0.51,1.13 -1.13,1.13c-0.62,0 -1.12,-0.51 -1.12,-1.13l0,-4.12l-4.13,0c-0.62,0 -1.12,-0.51 -1.12,-1.13c0,-0.62 0.5,-1.12 1.12,-1.12l4.13,0l0,-4.13c0,-0.62 0.5,-1.12 1.12,-1.12z" fill="#ff0015" fill-rule="evenodd" id="svg_1"/>
  <path clip-rule="evenodd" d="m18,1.88l-0.09,0c-3.46,-0.01 -6.17,-0.01 -8.29,0.28c-2.17,0.29 -3.88,0.9 -5.22,2.24c-1.34,1.34 -1.95,3.05 -2.24,5.22c-0.29,2.12 -0.29,4.83 -0.28,8.29l0,0.18c-0.01,3.46 -0.01,6.17 0.28,8.29c0.29,2.17 0.9,3.88 2.24,5.22c1.34,1.34 3.05,1.95 5.22,2.24c2.12,0.29 4.83,0.29 8.29,0.29l0.18,0c3.46,0 6.17,0 8.29,-0.29c2.17,-0.29 3.88,-0.9 5.22,-2.24c1.34,-1.34 1.95,-3.05 2.24,-5.22c0.29,-2.12 0.29,-4.83 0.29,-8.29l0,-0.09c0,-0.62 -0.51,-1.12 -1.13,-1.12c-0.62,0 -1.12,0.5 -1.12,1.12c0,3.57 -0.01,6.13 -0.27,8.08c-0.01,0.08 -0.02,0.15 -0.03,0.23l-4.16,-3.75c-1.95,-1.75 -4.85,-1.93 -7,-0.42l-0.45,0.32c-0.74,0.52 -1.76,0.43 -2.4,-0.21l-6.44,-6.44c-1.7,-1.7 -4.43,-1.79 -6.24,-0.21l-0.76,0.67c0,-2.69 0.04,-4.73 0.26,-6.35c0.26,-1.92 0.75,-3.07 1.6,-3.93c0.86,-0.85 2.01,-1.34 3.93,-1.6c1.95,-0.26 4.51,-0.26 8.08,-0.26c0.62,0 1.13,-0.51 1.13,-1.13c0,-0.62 -0.51,-1.12 -1.13,-1.12zm-13.61,24.2c0.26,1.92 0.75,3.07 1.6,3.93c0.86,0.85 2.01,1.34 3.93,1.6c1.95,0.26 4.51,0.27 8.08,0.27c3.57,0 6.13,-0.01 8.08,-0.27c1.92,-0.26 3.07,-0.75 3.93,-1.6c0.36,-0.37 0.66,-0.79 0.9,-1.3c-0.05,-0.04 -0.11,-0.08 -0.16,-0.12l-4.84,-4.36c-1.17,-1.05 -2.91,-1.15 -4.2,-0.25l-0.44,0.32c-1.64,1.15 -3.87,0.96 -5.29,-0.46l-6.44,-6.44c-0.86,-0.86 -2.25,-0.91 -3.17,-0.1l-2.24,1.96c0,2.92 0.03,5.11 0.26,6.82z" fill="#ff0015" fill-rule="evenodd" id="svg_2"/>
 </g>
</svg>