<?xml version="1.0"?>
<svg width="24" height="24" xmlns="http://www.w3.org/2000/svg" xmlns:svg="http://www.w3.org/2000/svg">
 <g class="layer">
  <title>Layer 1</title>
  <path d="m9,5.25c-0.41,0 -0.75,0.34 -0.75,0.75c0,0.41 0.34,0.75 0.75,0.75l6,0c0.41,0 0.75,-0.34 0.75,-0.75c0,-0.41 -0.34,-0.75 -0.75,-0.75l-6,0z" fill="#ff0015" id="svg_1"/>
  <path clip-rule="evenodd" d="m11.94,1.25c-2.07,0 -3.7,0 -4.98,0.17c-1.31,0.18 -2.35,0.55 -3.18,1.38c-0.82,0.83 -1.18,1.89 -1.36,3.21c-0.17,1.29 -0.17,2.93 -0.17,5.03l0,5.1c0,1.51 0,2.7 0.1,3.6c0.09,0.89 0.29,1.69 0.88,2.22c0.46,0.43 1.05,0.7 1.68,0.78c0.79,0.09 1.52,-0.29 2.25,-0.8c0.73,-0.52 1.62,-1.31 2.74,-2.3l0.04,-0.03c0.52,-0.46 0.87,-0.77 1.17,-0.99c0.28,-0.21 0.45,-0.28 0.6,-0.31c0.19,-0.04 0.39,-0.04 0.58,0c0.15,0.03 0.32,0.1 0.6,0.31c0.3,0.22 0.65,0.53 1.17,0.99l0.04,0.03c1.12,0.99 2.01,1.78 2.74,2.3c0.73,0.51 1.46,0.89 2.25,0.8c0.63,-0.08 1.22,-0.35 1.68,-0.78c0.59,-0.53 0.79,-1.33 0.88,-2.22c0.1,-0.9 0.1,-2.09 0.1,-3.6l0,-5.1c0,-2.1 0,-3.74 -0.17,-5.03c-0.18,-1.32 -0.54,-2.38 -1.36,-3.21c-0.83,-0.83 -1.87,-1.2 -3.18,-1.38c-1.28,-0.17 -2.91,-0.17 -4.98,-0.17l-0.12,0zm-7.09,2.61c0.5,-0.5 1.17,-0.8 2.31,-0.95c1.17,-0.16 2.7,-0.16 4.84,-0.16c2.14,0 3.67,0 4.84,0.16c1.14,0.15 1.81,0.45 2.31,0.95c0.5,0.5 0.79,1.19 0.94,2.35c0.16,1.17 0.16,2.72 0.16,4.89l0,4.99c0,1.57 0,2.68 -0.09,3.49c-0.09,0.83 -0.25,1.14 -0.4,1.28c-0.24,0.22 -0.53,0.35 -0.84,0.39c-0.2,0.02 -0.54,-0.06 -1.21,-0.54c-0.66,-0.46 -1.49,-1.19 -2.66,-2.23l-0.02,-0.02c-0.49,-0.43 -0.89,-0.79 -1.25,-1.05c-0.37,-0.27 -0.75,-0.48 -1.19,-0.57c-0.39,-0.08 -0.79,-0.08 -1.18,0c-0.44,0.09 -0.82,0.3 -1.19,0.57c-0.36,0.26 -0.76,0.62 -1.25,1.05l-0.02,0.02c-1.17,1.04 -2,1.77 -2.66,2.23c-0.67,0.48 -1.01,0.56 -1.21,0.54c-0.31,-0.04 -0.6,-0.17 -0.84,-0.39c-0.15,-0.14 -0.31,-0.45 -0.4,-1.28c-0.09,-0.81 -0.09,-1.92 -0.09,-3.49l0,-4.99c0,-2.17 0,-3.72 0.16,-4.89c0.15,-1.16 0.44,-1.85 0.94,-2.35z" fill="#ff0015" fill-rule="evenodd" id="svg_2"/>
 </g>
</svg>