<?xml version="1.0"?>
<svg width="20" height="20" xmlns="http://www.w3.org/2000/svg" xmlns:svg="http://www.w3.org/2000/svg">
 <g class="layer">
  <title>Layer 1</title>
  <path clip-rule="evenodd" d="m4.26,6.46c0.35,-0.02 0.65,0.24 0.67,0.58l0.38,5.75c0.08,1.12 0.13,1.91 0.25,2.49c0.11,0.57 0.27,0.88 0.5,1.09c0.23,0.21 0.54,0.35 1.11,0.43c0.6,0.07 1.38,0.08 2.51,0.08l0.64,0c1.13,0 1.91,-0.01 2.51,-0.08c0.57,-0.08 0.88,-0.22 1.11,-0.43c0.23,-0.21 0.39,-0.52 0.5,-1.09c0.12,-0.58 0.17,-1.37 0.25,-2.49l0.38,-5.75c0.02,-0.34 0.32,-0.6 0.67,-0.58c0.34,0.02 0.6,0.32 0.58,0.66l-0.39,5.8c-0.07,1.07 -0.13,1.93 -0.26,2.61c-0.14,0.7 -0.38,1.29 -0.87,1.75c-0.5,0.46 -1.1,0.66 -1.81,0.76c-0.69,0.09 -1.55,0.09 -2.62,0.09l-0.74,0c-1.07,0 -1.93,0 -2.62,-0.09c-0.71,-0.1 -1.31,-0.3 -1.81,-0.76c-0.49,-0.46 -0.73,-1.05 -0.87,-1.75c-0.13,-0.68 -0.19,-1.54 -0.26,-2.61l-0.39,-5.8c-0.02,-0.34 0.24,-0.64 0.58,-0.66z" fill="#ff0015" fill-rule="evenodd" id="svg_1"/>
  <path clip-rule="evenodd" d="m8.63,1.88l-0.04,0c-0.18,-0.01 -0.34,-0.01 -0.48,0.02c-0.59,0.09 -1.1,0.46 -1.37,0.98c-0.07,0.14 -0.12,0.29 -0.18,0.46l-0.01,0.03l-0.08,0.25c-0.02,0.04 -0.02,0.06 -0.03,0.07c-0.14,0.4 -0.52,0.67 -0.95,0.68c-0.01,0 -0.02,0.01 -0.07,0.01l-2.5,0c-0.35,0 -0.63,0.27 -0.63,0.62c0,0.35 0.28,0.63 0.63,0.63l2.5,0l0.02,0l9.12,0l0.02,0l2.5,0c0.35,0 0.63,-0.28 0.63,-0.63c0,-0.35 -0.28,-0.62 -0.63,-0.62l-2.5,0c-0.05,0 -0.06,-0.01 -0.07,-0.01c-0.43,-0.01 -0.81,-0.28 -0.95,-0.68c-0.01,-0.01 -0.01,-0.03 -0.03,-0.07l-0.08,-0.25l-0.01,-0.03c-0.06,-0.17 -0.11,-0.32 -0.18,-0.46c-0.27,-0.52 -0.78,-0.89 -1.37,-0.98c-0.14,-0.03 -0.3,-0.03 -0.48,-0.02l-0.04,0l-2.74,0zm-1.01,2.23c-0.03,0.09 -0.07,0.18 -0.11,0.27l4.98,0c-0.04,-0.09 -0.08,-0.18 -0.11,-0.27l-0.03,-0.09l-0.09,-0.25c-0.07,-0.23 -0.09,-0.28 -0.11,-0.31c-0.09,-0.17 -0.26,-0.3 -0.45,-0.33c-0.04,0 -0.09,0 -0.33,0l-2.74,0c-0.24,0 -0.29,0 -0.33,0c-0.19,0.03 -0.36,0.16 -0.45,0.33c-0.02,0.03 -0.04,0.08 -0.11,0.31l-0.09,0.25c-0.01,0.04 -0.02,0.07 -0.03,0.09z" fill="#ff0015" fill-rule="evenodd" id="svg_2"/>
 </g>
</svg>