<?xml version="1.0"?>
<svg width="36" height="36" xmlns="http://www.w3.org/2000/svg" xmlns:svg="http://www.w3.org/2000/svg">
 <g class="layer">
  <title>Layer 1</title>
  <path clip-rule="evenodd" d="m17.91,1.88l2.34,0c0.62,0 1.13,0.5 1.13,1.12c0,0.62 -0.51,1.13 -1.13,1.13l-2.25,0c-3.57,0 -6.13,0 -8.08,0.26c-1.92,0.26 -3.07,0.75 -3.93,1.6c-0.85,0.86 -1.34,2.01 -1.6,3.93c-0.26,1.95 -0.26,4.51 -0.26,8.08c0,3.57 0,6.13 0.26,8.08c0.26,1.92 0.75,3.07 1.6,3.93c0.86,0.85 2.01,1.34 3.93,1.6c1.95,0.26 4.51,0.27 8.08,0.27c3.57,0 6.13,-0.01 8.08,-0.27c1.92,-0.26 3.07,-0.75 3.93,-1.6c0.85,-0.86 1.34,-2.01 1.6,-3.93c0.26,-1.95 0.27,-4.51 0.27,-8.08l0,-2.25c0,-0.62 0.5,-1.12 1.12,-1.12c0.62,0 1.13,0.5 1.13,1.12l0,2.34c0,3.46 0,6.17 -0.29,8.29c-0.29,2.17 -0.9,3.88 -2.24,5.22c-1.34,1.34 -3.05,1.95 -5.22,2.24c-2.12,0.29 -4.83,0.29 -8.29,0.29l-0.18,0c-3.46,0 -6.17,0 -8.29,-0.29c-2.17,-0.29 -3.88,-0.9 -5.22,-2.24c-1.34,-1.34 -1.95,-3.05 -2.24,-5.22c-0.29,-2.12 -0.29,-4.83 -0.28,-8.29l0,-0.18c-0.01,-3.46 -0.01,-6.17 0.28,-8.29c0.29,-2.17 0.9,-3.88 2.24,-5.22c1.34,-1.34 3.05,-1.95 5.22,-2.24c2.12,-0.29 4.83,-0.29 8.29,-0.28zm7.25,1.53c2.05,-2.05 5.37,-2.05 7.43,0c2.05,2.06 2.05,5.38 0,7.43l-9.98,9.98c-0.55,0.55 -0.9,0.9 -1.29,1.21c-0.46,0.35 -0.96,0.66 -1.48,0.91c-0.45,0.21 -0.91,0.37 -1.66,0.62l-4.36,1.45c-0.8,0.27 -1.69,0.06 -2.29,-0.54c-0.6,-0.6 -0.81,-1.49 -0.54,-2.29l1.45,-4.36c0.25,-0.75 0.41,-1.21 0.62,-1.66c0.25,-0.52 0.56,-1.02 0.91,-1.48c0.31,-0.39 0.66,-0.74 1.21,-1.29l9.98,-9.98zm5.84,1.59c-1.18,-1.17 -3.08,-1.17 -4.25,0l-0.57,0.57c0.04,0.14 0.08,0.31 0.15,0.51c0.21,0.62 0.62,1.43 1.39,2.2c0.77,0.77 1.58,1.18 2.2,1.39c0.2,0.07 0.37,0.11 0.51,0.15l0.57,-0.57c1.17,-1.17 1.17,-3.07 0,-4.25zm-2.34,6.59c-0.78,-0.33 -1.68,-0.87 -2.53,-1.72c-0.85,-0.85 -1.39,-1.75 -1.72,-2.53l-7.58,7.59c-0.63,0.62 -0.87,0.87 -1.08,1.13c-0.26,0.33 -0.48,0.69 -0.66,1.07c-0.14,0.3 -0.26,0.63 -0.54,1.47l-0.64,1.95l1.54,1.54l1.95,-0.64c0.84,-0.28 1.17,-0.4 1.47,-0.54c0.38,-0.18 0.74,-0.4 1.07,-0.66c0.26,-0.21 0.51,-0.45 1.13,-1.08l7.59,-7.58z" fill="#ff0015" fill-rule="evenodd" id="svg_1"/>
 </g>
</svg>