<?xml version="1.0"?>
<svg width="97" height="77" xmlns="http://www.w3.org/2000/svg" xmlns:svg="http://www.w3.org/2000/svg">
 <g class="layer">
  <title>Layer 1</title>
  <path d="m17.02,24.09l0.29,0c2.76,-0.2 4.82,-2.56 4.72,-5.31c-0.19,-2.76 -2.55,-4.82 -5.31,-4.72c-2.75,0.1 -4.82,2.55 -4.72,5.31c0.1,2.65 2.36,4.72 5.02,4.72zm-2.36,-7.08c0.49,-0.59 1.27,-0.99 2.06,-0.99l0.2,0c1.67,0 3.05,1.38 3.05,3.05c0,1.68 -1.38,3.05 -3.05,3.05c-1.67,0 -3.05,-1.37 -3.05,-3.05c0,-0.78 0.29,-1.47 0.79,-2.06z" fill="#ff0000" id="svg_1"/>
  <path d="m84.3,18.58l-26.27,-1.47l-0.19,-2.95c-0.3,-5.61 -5.12,-9.94 -10.82,-9.64l-33.35,1.87c-5.6,0.29 -9.93,5.21 -9.64,10.81l1.87,33.45l0,0.78c0.69,5.12 5.02,8.96 10.13,8.96l0.59,0l21.35,-1.19l0,0.6c-0.3,5.6 3.93,10.52 9.64,10.81l33.44,1.97l0.59,0c5.41,0 9.93,-4.23 10.23,-9.64l1.97,-33.44c0.39,-5.7 -3.94,-10.52 -9.54,-10.92zm-76.23,-7.47c1.47,-1.68 3.54,-2.66 5.7,-2.76l33.44,-1.87c4.53,-0.29 8.46,3.25 8.76,7.77l0.19,2.76l-5.21,-0.3c-5.6,-0.29 -10.52,3.94 -10.82,9.64l-0.59,9.35l-9.34,10.52c-0.2,0.3 -0.59,0.39 -0.99,0.49c-0.39,0 -0.68,-0.1 -0.98,-0.39l-7.67,-6.89c-1.38,-1.27 -3.44,-1.08 -4.72,0.3l-7.97,8.95l-1.77,-31.48c-0.2,-2.26 0.59,-4.42 1.97,-6.09zm8.55,47.21c-4.23,0.2 -7.96,-2.75 -8.65,-6.98l9.24,-10.33c0.2,-0.3 0.59,-0.4 0.99,-0.49c0.39,0 0.69,0.09 0.98,0.39l7.67,6.89c0.69,0.59 1.58,0.88 2.46,0.88c0.89,0 1.67,-0.49 2.26,-1.08l7.68,-8.66l-1.09,18.3l-21.54,1.08zm75.25,-29.02l-1.97,33.45c-0.29,4.52 -4.23,8.06 -8.75,7.77l-33.44,-1.97c-4.53,-0.3 -8.07,-4.23 -7.77,-8.75l1.96,-33.45c0.3,-4.33 3.84,-7.77 8.26,-7.77l0.5,0l33.44,1.97c4.62,0.29 8.06,4.23 7.77,8.75z" fill="#ff0000" id="svg_2"/>
  <path d="m77.9,41.4l-16.62,-10.92c-2.07,-1.37 -4.82,-0.78 -6.1,1.28c-0.39,0.69 -0.69,1.38 -0.69,2.17l-1.18,19.77c-0.1,2.46 1.67,4.52 4.13,4.72l0.3,0c0.69,0 1.38,-0.2 1.97,-0.49l17.7,-8.86c2.16,-1.08 3.05,-3.73 1.97,-5.9c-0.4,-0.69 -0.89,-1.28 -1.48,-1.77zm-1.37,5.9l-17.71,8.86c-0.39,0.19 -0.79,0.29 -1.28,0.29c-0.39,0 -0.88,-0.2 -1.18,-0.39c-0.69,-0.49 -1.18,-1.28 -1.08,-2.17l1.18,-19.77c0.1,-0.88 0.59,-1.67 1.38,-2.06c0.78,-0.4 1.67,-0.3 2.46,0.1l16.42,10.91c1.18,0.79 1.48,2.27 0.69,3.35c-0.2,0.39 -0.49,0.69 -0.88,0.88z" fill="#ff0000" id="svg_3"/>
 </g>
</svg>