<?xml version="1.0"?>
<svg width="24" height="24" xmlns="http://www.w3.org/2000/svg" xmlns:svg="http://www.w3.org/2000/svg">
 <g class="layer">
  <title>Layer 1</title>
  <path clip-rule="evenodd" d="m18.5,1.25c0.41,0 0.75,0.34 0.75,0.75l0,2.75l2.75,0c0.41,0 0.75,0.34 0.75,0.75c0,0.41 -0.34,0.75 -0.75,0.75l-2.75,0l0,2.75c0,0.41 -0.34,0.75 -0.75,0.75c-0.41,0 -0.75,-0.34 -0.75,-0.75l0,-2.75l-2.75,0c-0.41,0 -0.75,-0.34 -0.75,-0.75c0,-0.41 0.34,-0.75 0.75,-0.75l2.75,0l0,-2.75c0,-0.41 0.34,-0.75 0.75,-0.75z" fill="#ff0000" fill-rule="evenodd" id="svg_1"/>
  <path clip-rule="evenodd" d="m12,1.25l-0.06,0c-2.31,0 -4.11,0 -5.53,0.19c-1.44,0.19 -2.58,0.6 -3.48,1.49c-0.89,0.9 -1.3,2.04 -1.49,3.48c-0.19,1.42 -0.19,3.22 -0.19,5.53l0,0.12c0,2.31 0,4.11 0.19,5.53c0.19,1.44 0.6,2.58 1.49,3.48c0.9,0.89 2.04,1.3 3.48,1.49c1.42,0.19 3.22,0.19 5.53,0.19l0.12,0c2.31,0 4.11,0 5.53,-0.19c1.44,-0.19 2.58,-0.6 3.48,-1.49c0.89,-0.9 1.3,-2.04 1.49,-3.48c0.19,-1.42 0.19,-3.22 0.19,-5.53l0,-0.06c0,-0.41 -0.34,-0.75 -0.75,-0.75c-0.41,0 -0.75,0.34 -0.75,0.75c0,2.38 0,4.09 -0.18,5.39c0,0.05 -0.01,0.1 -0.02,0.15l-2.77,-2.5c-1.3,-1.17 -3.24,-1.28 -4.67,-0.28l-0.29,0.21c-0.5,0.35 -1.18,0.29 -1.61,-0.14l-4.29,-4.29c-1.13,-1.13 -2.95,-1.19 -4.16,-0.14l-0.51,0.45c0.01,-1.8 0.03,-3.16 0.18,-4.24c0.17,-1.27 0.5,-2.05 1.06,-2.62c0.57,-0.56 1.35,-0.89 2.62,-1.06c1.3,-0.18 3.01,-0.18 5.39,-0.18c0.41,0 0.75,-0.34 0.75,-0.75c0,-0.41 -0.34,-0.75 -0.75,-0.75zm-9.07,16.14c0.17,1.27 0.5,2.05 1.06,2.62c0.57,0.56 1.35,0.89 2.62,1.06c1.3,0.18 3.01,0.18 5.39,0.18c2.38,0 4.09,0 5.39,-0.18c1.27,-0.17 2.05,-0.5 2.62,-1.06c0.24,-0.25 0.44,-0.53 0.6,-0.87c-0.04,-0.02 -0.08,-0.05 -0.11,-0.08l-3.23,-2.9c-0.77,-0.71 -1.94,-0.78 -2.79,-0.17l-0.3,0.21c-1.1,0.77 -2.58,0.64 -3.53,-0.31l-4.29,-4.29c-0.57,-0.57 -1.5,-0.61 -2.11,-0.07l-1.5,1.31c0,1.95 0.02,3.4 0.18,4.55z" fill="#ff0000" fill-rule="evenodd" id="svg_2"/>
 </g>
</svg>