<?xml version="1.0"?>
<svg width="24" height="24" xmlns="http://www.w3.org/2000/svg" xmlns:svg="http://www.w3.org/2000/svg">
 <g class="layer">
  <title>Layer 1</title>
  <path d="m9,17.25c-0.41,0 -0.75,0.34 -0.75,0.75c0,0.41 0.34,0.75 0.75,0.75l6,0c0.41,0 0.75,-0.34 0.75,-0.75c0,-0.41 -0.34,-0.75 -0.75,-0.75l-6,0z" fill="#ff0015" id="svg_1"/>
  <path clip-rule="evenodd" d="m12,1.25c-0.71,0 -1.35,0.2 -2.05,0.54c-0.67,0.33 -1.45,0.81 -2.43,1.42l-2.06,1.28c-0.92,0.57 -1.66,1.03 -2.23,1.47c-0.59,0.45 -1.04,0.91 -1.37,1.5c-0.32,0.6 -0.47,1.23 -0.54,1.98c-0.07,0.73 -0.07,1.61 -0.07,2.73l0,1.61c0,1.9 0,3.41 0.15,4.58c0.16,1.21 0.49,2.18 1.23,2.95c0.75,0.77 1.7,1.12 2.88,1.28c1.14,0.16 2.6,0.16 4.43,0.16l4.12,0c1.83,0 3.29,0 4.43,-0.16c1.18,-0.16 2.13,-0.51 2.88,-1.28c0.74,-0.77 1.07,-1.74 1.23,-2.95c0.15,-1.17 0.15,-2.68 0.15,-4.58l0,-1.61c0,-1.12 0,-2 -0.07,-2.73c-0.07,-0.75 -0.22,-1.38 -0.54,-1.98c-0.33,-0.59 -0.78,-1.05 -1.37,-1.5c-0.57,-0.44 -1.31,-0.9 -2.23,-1.47l-2.06,-1.28c-0.98,-0.61 -1.76,-1.09 -2.43,-1.42c-0.7,-0.34 -1.34,-0.54 -2.05,-0.54zm-3.72,3.25c1.02,-0.63 1.73,-1.07 2.33,-1.36c0.58,-0.28 0.99,-0.39 1.39,-0.39c0.4,0 0.81,0.11 1.39,0.39c0.6,0.29 1.31,0.73 2.33,1.36l2,1.25c0.96,0.59 1.64,1.01 2.14,1.4c0.49,0.37 0.77,0.68 0.96,1.03c0.2,0.36 0.31,0.77 0.37,1.4c0.06,0.65 0.06,1.47 0.06,2.62l0,1.52c0,1.98 0,3.38 -0.14,4.45c-0.14,1.05 -0.39,1.65 -0.82,2.1c-0.43,0.44 -1,0.7 -2,0.84c-1.03,0.14 -2.38,0.14 -4.29,0.14l-4,0c-1.91,0 -3.26,0 -4.29,-0.14c-1,-0.14 -1.57,-0.4 -2,-0.84c-0.43,-0.45 -0.68,-1.05 -0.82,-2.1c-0.14,-1.07 -0.14,-2.47 -0.14,-4.45l0,-1.52c0,-1.15 0,-1.97 0.06,-2.62c0.06,-0.63 0.17,-1.04 0.37,-1.4c0.19,-0.35 0.47,-0.66 0.96,-1.03c0.5,-0.39 1.18,-0.81 2.14,-1.4l2,-1.25z" fill="#ff0015" fill-rule="evenodd" id="svg_2"/>
 </g>
</svg>