<?xml version="1.0"?>
<svg width="18" height="16" xmlns="http://www.w3.org/2000/svg" xmlns:svg="http://www.w3.org/2000/svg">
 <g class="layer">
  <title>Layer 1</title>
  <path clip-rule="evenodd" d="m3.66,1.62c-1.39,0.64 -2.4,2.19 -2.4,4.02c0,1.88 0.75,3.33 1.83,4.57c0.89,1.02 1.96,1.87 3.01,2.7c0.25,0.2 0.5,0.39 0.75,0.59c0.44,0.35 0.83,0.66 1.21,0.89c0.38,0.22 0.68,0.33 0.94,0.33c0.26,0 0.56,-0.11 0.94,-0.33c0.38,-0.23 0.77,-0.54 1.21,-0.89c0.25,-0.2 0.5,-0.39 0.75,-0.59c1.05,-0.83 2.12,-1.68 3.01,-2.7c1.08,-1.24 1.83,-2.69 1.83,-4.57c0,-1.83 -1.01,-3.38 -2.4,-4.02c-1.35,-0.63 -3.16,-0.47 -4.89,1.36c-0.12,0.13 -0.28,0.2 -0.45,0.2c-0.17,0 -0.33,-0.07 -0.45,-0.2c-1.73,-1.83 -3.54,-1.99 -4.89,-1.36zm5.34,0.03c-1.94,-1.77 -4.1,-2.02 -5.86,-1.2c-1.86,0.87 -3.14,2.88 -3.14,5.19c0,2.28 0.93,4.02 2.15,5.42c0.98,1.13 2.17,2.07 3.23,2.9c0.23,0.18 0.47,0.37 0.69,0.54c0.43,0.35 0.89,0.72 1.35,1c0.47,0.27 1,0.5 1.58,0.5c0.58,0 1.11,-0.23 1.58,-0.5c0.46,-0.28 0.92,-0.65 1.35,-1c0.22,-0.17 0.46,-0.36 0.69,-0.54c1.06,-0.83 2.25,-1.77 3.23,-2.9c1.22,-1.4 2.15,-3.14 2.15,-5.42c0,-2.31 -1.28,-4.32 -3.14,-5.19c-1.76,-0.82 -3.92,-0.57 -5.86,1.2z" fill="#ff0000" fill-rule="evenodd" id="svg_1"/>
 </g>
</svg>