<?xml version="1.0"?>
<svg width="24" height="24" xmlns="http://www.w3.org/2000/svg" xmlns:svg="http://www.w3.org/2000/svg">
 <g class="layer">
  <title>Layer 1</title>
  <path d="m5.47,12.53c-0.29,-0.29 -0.29,-0.77 0,-1.06l2,-2c0.29,-0.29 0.77,-0.29 1.06,0c0.29,0.29 0.29,0.77 0,1.06l-0.72,0.72l7.19,0c0.41,0 0.75,0.34 0.75,0.75c0,0.41 -0.34,0.75 -0.75,0.75l-7.19,0l0.72,0.72c0.29,0.29 0.29,0.77 0,1.06c-0.29,0.29 -0.77,0.29 -1.06,0l-2,-2z" fill="#ff0000" id="svg_1"/>
  <path clip-rule="evenodd" d="m13.95,1.25l1.11,0c1.36,0 2.46,0 3.33,0.12c0.9,0.12 1.66,0.38 2.26,0.98c0.6,0.6 0.86,1.36 0.98,2.26c0.12,0.87 0.12,1.97 0.12,3.34l0,8.1c0,1.37 0,2.47 -0.12,3.34c-0.12,0.9 -0.38,1.66 -0.98,2.26c-0.6,0.6 -1.36,0.86 -2.26,0.98c-0.87,0.12 -1.97,0.12 -3.33,0.12l-1.11,0c-1.37,0 -2.47,0 -3.34,-0.12c-0.9,-0.12 -1.66,-0.38 -2.26,-0.98c-0.4,-0.4 -0.65,-0.87 -0.81,-1.4c-0.95,0 -1.74,-0.01 -2.38,-0.1c-0.77,-0.1 -1.43,-0.32 -1.96,-0.85c-0.53,-0.53 -0.75,-1.19 -0.85,-1.96c-0.1,-0.73 -0.1,-1.65 -0.1,-2.79l0,-5.1c0,-1.14 0,-2.06 0.1,-2.79c0.1,-0.77 0.32,-1.43 0.85,-1.96c0.53,-0.53 1.19,-0.75 1.96,-0.85c0.64,-0.09 1.43,-0.1 2.38,-0.1c0.16,-0.53 0.41,-1 0.81,-1.4c0.6,-0.6 1.36,-0.86 2.26,-0.98c0.87,-0.12 1.97,-0.12 3.34,-0.12zm-6.7,15.75c0.01,0.65 0.02,1.23 0.05,1.75c-0.83,0 -1.45,-0.02 -1.94,-0.08c-0.6,-0.09 -0.89,-0.23 -1.1,-0.43c-0.2,-0.21 -0.34,-0.5 -0.43,-1.1c-0.08,-0.62 -0.08,-1.44 -0.08,-2.64l0,-5c0,-1.2 0,-2.02 0.08,-2.64c0.09,-0.6 0.23,-0.89 0.43,-1.1c0.21,-0.2 0.5,-0.34 1.1,-0.43c0.49,-0.06 1.11,-0.08 1.94,-0.08c-0.03,0.52 -0.04,1.1 -0.05,1.75c0,0.41 0.33,0.75 0.75,0.75c0.41,0 0.75,-0.33 0.75,-0.75c0.01,-1.09 0.04,-1.86 0.14,-2.45c0.11,-0.57 0.28,-0.9 0.52,-1.14c0.28,-0.28 0.66,-0.46 1.4,-0.56c0.75,-0.1 1.75,-0.1 3.19,-0.1l1,0c1.44,0 2.44,0 3.19,0.1c0.74,0.1 1.12,0.28 1.4,0.56c0.28,0.28 0.46,0.66 0.56,1.4c0.1,0.75 0.1,1.75 0.1,3.19l0,8c0,1.44 0,2.44 -0.1,3.19c-0.1,0.74 -0.28,1.12 -0.56,1.4c-0.28,0.28 -0.66,0.46 -1.4,0.56c-0.75,0.1 -1.75,0.1 -3.19,0.1l-1,0c-1.44,0 -2.44,0 -3.19,-0.1c-0.74,-0.1 -1.12,-0.28 -1.4,-0.56c-0.24,-0.24 -0.41,-0.57 -0.52,-1.14c-0.1,-0.59 -0.13,-1.36 -0.14,-2.45c0,-0.42 -0.34,-0.75 -0.75,-0.75c-0.42,0 -0.75,0.34 -0.75,0.75z" fill="#ff0000" fill-rule="evenodd" id="svg_2"/>
 </g>
</svg>