<?xml version="1.0"?>
<svg width="24" height="24" xmlns="http://www.w3.org/2000/svg" xmlns:svg="http://www.w3.org/2000/svg">
 <g class="layer">
  <title>Layer 1</title>
  <path clip-rule="evenodd" d="m9,1.25c-2.62,0 -4.75,2.13 -4.75,4.75c0,2.62 2.13,4.75 4.75,4.75c2.62,0 4.75,-2.13 4.75,-4.75c0,-2.62 -2.13,-4.75 -4.75,-4.75zm-3.25,4.75c0,-1.79 1.46,-3.25 3.25,-3.25c1.79,0 3.25,1.46 3.25,3.25c0,1.79 -1.46,3.25 -3.25,3.25c-1.79,0 -3.25,-1.46 -3.25,-3.25z" fill="#ff0000" fill-rule="evenodd" id="svg_1"/>
  <path d="m15,2.25c-0.41,0 -0.75,0.34 -0.75,0.75c0,0.41 0.34,0.75 0.75,0.75c1.24,0 2.25,1.01 2.25,2.25c0,1.24 -1.01,2.25 -2.25,2.25c-0.41,0 -0.75,0.34 -0.75,0.75c0,0.41 0.34,0.75 0.75,0.75c2.07,0 3.75,-1.68 3.75,-3.75c0,-2.07 -1.68,-3.75 -3.75,-3.75z" fill="#ff0000" id="svg_2"/>
  <path clip-rule="evenodd" d="m3.68,13.52c1.4,-0.8 3.28,-1.27 5.32,-1.27c2.04,0 3.92,0.47 5.32,1.27c1.38,0.79 2.43,1.99 2.43,3.48c0,1.49 -1.05,2.69 -2.43,3.48c-1.4,0.8 -3.28,1.27 -5.32,1.27c-2.04,0 -3.92,-0.47 -5.32,-1.27c-1.38,-0.79 -2.43,-1.99 -2.43,-3.48c0,-1.49 1.05,-2.69 2.43,-3.48zm0.74,1.3c-1.15,0.66 -1.67,1.46 -1.67,2.18c0,0.72 0.52,1.52 1.67,2.18c1.14,0.65 2.75,1.07 4.58,1.07c1.83,0 3.44,-0.42 4.58,-1.07c1.15,-0.66 1.67,-1.46 1.67,-2.18c0,-0.72 -0.52,-1.52 -1.67,-2.18c-1.14,-0.65 -2.75,-1.07 -4.58,-1.07c-1.83,0 -3.44,0.42 -4.58,1.07z" fill="#ff0000" fill-rule="evenodd" id="svg_3"/>
  <path d="m18.16,13.27c-0.4,-0.09 -0.8,0.16 -0.89,0.57c-0.09,0.4 0.16,0.8 0.57,0.89c0.79,0.18 1.42,0.47 1.84,0.82c0.42,0.34 0.57,0.67 0.57,0.95c0,0.25 -0.12,0.55 -0.45,0.85c-0.34,0.31 -0.85,0.6 -1.52,0.8c-0.39,0.12 -0.62,0.54 -0.5,0.94c0.12,0.39 0.54,0.62 0.94,0.5c0.82,-0.25 1.55,-0.63 2.1,-1.14c0.54,-0.5 0.93,-1.17 0.93,-1.95c0,-0.86 -0.47,-1.59 -1.12,-2.11c-0.64,-0.53 -1.51,-0.91 -2.47,-1.12z" fill="#ff0000" id="svg_4"/>
 </g>
</svg>