<?xml version="1.0"?>
<svg width="20" height="20" xmlns="http://www.w3.org/2000/svg" xmlns:svg="http://www.w3.org/2000/svg">
 <g class="layer">
  <title>Layer 1</title>
  <path clip-rule="evenodd" d="m17.5,9.25l0,4.16c0,2.58 0,3.87 -0.61,4.43c-0.29,0.27 -0.66,0.44 -1.05,0.49c-0.83,0.09 -1.79,-0.76 -3.71,-2.46c-0.85,-0.75 -1.27,-1.13 -1.76,-1.22c-0.25,-0.05 -0.49,-0.05 -0.74,0c-0.49,0.09 -0.91,0.47 -1.76,1.22c-1.92,1.7 -2.88,2.55 -3.71,2.46c-0.39,-0.05 -0.76,-0.22 -1.05,-0.49c-0.61,-0.56 -0.61,-1.85 -0.61,-4.43l0,-4.16c0,-3.58 0,-5.36 1.1,-6.47c1.1,-1.11 2.86,-1.11 6.4,-1.11c3.54,0 5.3,0 6.4,1.11c1.1,1.11 1.1,2.89 1.1,6.47zm-10.62,-4.25c0,-0.35 0.27,-0.63 0.62,-0.63l5,0c0.35,0 0.63,0.28 0.63,0.63c0,0.35 -0.28,0.62 -0.63,0.62l-5,0c-0.35,0 -0.62,-0.27 -0.62,-0.62z" fill="#ff0015" fill-rule="evenodd" id="svg_1"/>
 </g>
</svg>