<?xml version="1.0"?>
<svg width="24" height="24" xmlns="http://www.w3.org/2000/svg" xmlns:svg="http://www.w3.org/2000/svg">
 <g class="layer">
  <title>Layer 1</title>
  <path clip-rule="evenodd" d="m11.5,2.75c-4.83,0 -8.75,3.92 -8.75,8.75c0,4.83 3.92,8.75 8.75,8.75c4.83,0 8.75,-3.92 8.75,-8.75c0,-4.83 -3.92,-8.75 -8.75,-8.75zm-10.25,8.75c0,-5.66 4.59,-10.25 10.25,-10.25c5.66,0 10.25,4.59 10.25,10.25c0,2.56 -0.94,4.9 -2.49,6.7l3.27,3.27c0.29,0.29 0.29,0.77 0,1.06c-0.29,0.29 -0.77,0.29 -1.06,0l-3.27,-3.27c-1.8,1.55 -4.14,2.49 -6.7,2.49c-5.66,0 -10.25,-4.59 -10.25,-10.25z" fill="#ff0000" fill-rule="evenodd" id="svg_1"/>
 </g>
</svg>