<?xml version="1.0"?>
<svg width="24" height="24" xmlns="http://www.w3.org/2000/svg" xmlns:svg="http://www.w3.org/2000/svg">
 <g class="layer">
  <title>Layer 1</title>
  <path clip-rule="evenodd" d="m10.95,1.25l2.1,0c1.37,0 2.47,0 3.34,0.12c0.9,0.12 1.66,0.38 2.26,0.98c0.4,0.4 0.65,0.87 0.81,1.4c0.21,0.01 0.39,0.01 0.55,0.04c1.39,0.22 2.48,1.31 2.7,2.7c0.04,0.26 0.04,0.54 0.04,0.95c0,0.02 0,0.04 0,0.06l0,9c0,0.02 0,0.04 0,0.06c0,0.41 0,0.69 -0.04,0.95c-0.22,1.39 -1.31,2.48 -2.7,2.7c-0.16,0.03 -0.34,0.04 -0.55,0.04c-0.16,0.53 -0.41,1 -0.81,1.4c-0.6,0.6 -1.36,0.86 -2.26,0.98c-0.87,0.12 -1.97,0.12 -3.34,0.12l-2.1,0c-1.37,0 -2.47,0 -3.34,-0.12c-0.9,-0.12 -1.66,-0.38 -2.26,-0.98c-0.4,-0.4 -0.65,-0.87 -0.81,-1.4c-0.21,0 -0.39,-0.01 -0.55,-0.04c-1.39,-0.22 -2.48,-1.31 -2.7,-2.7c-0.04,-0.26 -0.04,-0.54 -0.04,-0.95c0,-0.02 0,-0.04 0,-0.06l0,-9c0,-0.02 0,-0.04 0,-0.06c0,-0.41 0,-0.69 0.04,-0.95c0.22,-1.39 1.31,-2.48 2.7,-2.7c0.16,-0.03 0.34,-0.03 0.55,-0.04c0.16,-0.53 0.41,-1 0.81,-1.4c0.6,-0.6 1.36,-0.86 2.26,-0.98c0.87,-0.12 1.97,-0.12 3.34,-0.12zm-6.65,4.01c-0.03,0 -0.05,0.01 -0.07,0.01c-0.75,0.12 -1.34,0.71 -1.46,1.46c-0.02,0.12 -0.02,0.28 -0.02,0.77l0,9c0,0.49 0,0.65 0.02,0.77c0.12,0.75 0.71,1.34 1.46,1.46c0.02,0 0.04,0.01 0.07,0.01c-0.05,-0.75 -0.05,-1.64 -0.05,-2.69l0,-1.23c0,0 0,0 0,0l0,-6.87c0,-1.05 0,-1.94 0.05,-2.69zm1.45,9.86l0,0.88c0,1.44 0,2.44 0.1,3.19c0.1,0.74 0.28,1.12 0.56,1.4c0.28,0.28 0.66,0.46 1.4,0.56c0.75,0.1 1.75,0.1 3.19,0.1l2,0c1.44,0 2.44,0 3.19,-0.1c0.74,-0.1 1.12,-0.28 1.4,-0.56c0.15,-0.15 0.28,-0.34 0.37,-0.59l-1.88,-1.99c-0.5,-0.53 -1.2,-0.57 -1.73,-0.13l-0.22,0.18c-0.91,0.75 -2.18,0.61 -2.93,-0.28l-3.17,-3.71c-0.35,-0.41 -0.84,-0.42 -1.2,-0.05l-1.08,1.1zm12.48,2.98l-1.06,-1.12c-1.03,-1.09 -2.62,-1.21 -3.77,-0.26l-0.22,0.18c-0.26,0.21 -0.59,0.2 -0.84,-0.1l-3.16,-3.7c-0.92,-1.07 -2.44,-1.14 -3.43,-0.13l0,0l0,-4.97c0,-1.44 0,-2.44 0.1,-3.19c0.1,-0.74 0.28,-1.12 0.56,-1.4c0.28,-0.28 0.66,-0.46 1.4,-0.56c0.75,-0.1 1.75,-0.1 3.19,-0.1l2,0c1.44,0 2.44,0 3.19,0.1c0.74,0.1 1.12,0.28 1.4,0.56c0.28,0.28 0.46,0.66 0.56,1.4c0.1,0.75 0.1,1.75 0.1,3.19l0,8c0,0.83 0,1.52 -0.02,2.1zm1.47,0.64c0.03,0 0.05,-0.01 0.07,-0.01c0.75,-0.12 1.34,-0.71 1.46,-1.46c0.02,-0.12 0.02,-0.28 0.02,-0.77l0,-9c0,-0.49 0,-0.65 -0.02,-0.77c-0.12,-0.75 -0.71,-1.34 -1.46,-1.46c-0.02,0 -0.04,-0.01 -0.07,-0.01c0.05,0.75 0.05,1.64 0.05,2.69l0,8.1c0,1.05 0,1.94 -0.05,2.69zm-5.2,-12.99c-0.41,0 -0.75,0.34 -0.75,0.75c0,0.41 0.34,0.75 0.75,0.75c0.41,0 0.75,-0.34 0.75,-0.75c0,-0.41 -0.34,-0.75 -0.75,-0.75zm-2.25,0.75c0,-1.24 1.01,-2.25 2.25,-2.25c1.24,0 2.25,1.01 2.25,2.25c0,1.24 -1.01,2.25 -2.25,2.25c-1.24,0 -2.25,-1.01 -2.25,-2.25z" fill="#ff0000" fill-rule="evenodd" id="svg_1"/>
 </g>
</svg>